<?xml version="1.0" encoding="utf-8"?>
<!-- Generator: Adobe Illustrator 26.0.3, SVG Export Plug-In . SVG Version: 6.00 Build 0)  -->
<svg version="1.1" id="Ebene_2" xmlns="http://www.w3.org/2000/svg" xmlns:xlink="http://www.w3.org/1999/xlink" x="0px" y="0px"
	 viewBox="0 0 168.21 47.49" style="enable-background:new 0 0 168.21 47.49;" xml:space="preserve">
<style type="text/css">
	.st0{fill:#010000;}
	.st1{fill:#FFFFFF;}
</style>
<g>
	<g>
		<path class="st0" d="M34.19,9.3c0.34,0,0.62-0.09,0.84-0.26c0.22-0.17,0.33-0.44,0.34-0.81c0-0.26-0.13-0.47-0.38-0.65
			c-0.11-0.09-0.24-0.17-0.38-0.25s-0.29-0.16-0.44-0.24C34.02,7,33.87,6.91,33.73,6.82c-0.15-0.09-0.28-0.19-0.39-0.3
			C33.1,6.3,32.97,6.03,32.97,5.7c0-0.43,0.17-0.76,0.49-1.01c0.31-0.24,0.7-0.36,1.17-0.36c0.13,0,0.29,0.01,0.48,0.03
			c0.19,0.03,0.37,0.08,0.55,0.14l-0.08,0.47c-0.26-0.13-0.57-0.2-0.95-0.2c-0.13,0-0.27,0.01-0.4,0.04
			c-0.13,0.03-0.25,0.08-0.37,0.16c-0.1,0.06-0.19,0.15-0.26,0.27c-0.07,0.12-0.1,0.27-0.1,0.44c0,0.12,0.03,0.24,0.1,0.35
			c0.07,0.1,0.16,0.2,0.27,0.28c0.12,0.08,0.25,0.17,0.39,0.24c0.14,0.08,0.29,0.16,0.44,0.25c0.31,0.15,0.59,0.34,0.83,0.57
			c0.12,0.11,0.21,0.24,0.28,0.39c0.06,0.15,0.1,0.32,0.1,0.52c-0.01,0.52-0.19,0.9-0.55,1.13c-0.35,0.23-0.74,0.35-1.17,0.35
			c-0.51-0.01-0.91-0.08-1.19-0.23l0.05-0.53C33.33,9.2,33.71,9.3,34.19,9.3z"/>
		<path class="st0" d="M39.95,6.34c-0.27-0.12-0.54-0.19-0.82-0.19c-0.46,0-0.81,0.15-1.06,0.44c-0.25,0.29-0.38,0.68-0.38,1.16
			c0,0.45,0.12,0.82,0.38,1.12c0.25,0.31,0.58,0.48,1.01,0.48c0.3,0,0.58-0.06,0.86-0.17l0.04,0.44c-0.31,0.09-0.64,0.14-0.98,0.13
			c-0.62-0.01-1.07-0.21-1.37-0.61c-0.31-0.39-0.46-0.85-0.46-1.4c0-0.6,0.18-1.09,0.53-1.45c0.34-0.36,0.8-0.55,1.37-0.56
			c0.23,0,0.43,0.02,0.58,0.05c0.08,0.01,0.15,0.03,0.21,0.04c0.05,0.02,0.1,0.04,0.13,0.05L39.95,6.34z"/>
		<path class="st0" d="M41.38,4.03h0.47v2.45h0.02c0.1-0.21,0.26-0.39,0.47-0.53c0.21-0.13,0.45-0.2,0.73-0.2
			c0.51,0,0.86,0.16,1.04,0.45c0.18,0.3,0.27,0.69,0.26,1.18v2.29h-0.47V7.38c0-0.17-0.01-0.33-0.03-0.48
			c-0.02-0.15-0.06-0.27-0.13-0.38c-0.12-0.24-0.37-0.36-0.75-0.37c-0.41,0.01-0.7,0.17-0.88,0.47c-0.18,0.31-0.26,0.64-0.26,0.99
			v2.05h-0.47V4.03z"/>
		<path class="st0" d="M50.07,9.66H49.5l-1.04-3.31h-0.02L47.4,9.66h-0.57l-1.23-3.83h0.52l1.01,3.31h0.02l1.07-3.31h0.57l1.01,3.31
			h0.01l1.06-3.31h0.47L50.07,9.66z"/>
		<path class="st0" d="M55.12,9.54c-0.36,0.14-0.73,0.21-1.11,0.21c-0.62-0.01-1.07-0.2-1.34-0.58c-0.27-0.37-0.4-0.84-0.4-1.43
			c0-0.6,0.16-1.08,0.45-1.45c0.29-0.36,0.67-0.55,1.16-0.56c0.54,0.01,0.93,0.2,1.17,0.56c0.24,0.36,0.35,0.81,0.35,1.34v0.24
			h-2.62c0,0.42,0.11,0.76,0.32,1.03c0.21,0.29,0.52,0.43,0.94,0.44c0.19,0,0.38-0.03,0.59-0.1c0.21-0.06,0.37-0.12,0.49-0.19V9.54z
			 M54.89,7.48c0-0.35-0.07-0.66-0.22-0.92c-0.16-0.27-0.41-0.4-0.76-0.41C53.57,6.16,53.3,6.3,53.1,6.57
			c-0.21,0.27-0.31,0.57-0.31,0.91H54.89z"/>
		<path class="st0" d="M57.37,4.81h-0.47V4.18h0.47V4.81z M56.89,5.83h0.47v3.83h-0.47V5.83z"/>
		<path class="st0" d="M58.79,9.26l2.3-3.02h-2.21V5.83h2.76v0.41l-2.3,3.02h2.3v0.41h-2.85V9.26z"/>
		<path class="st0" d="M65.63,9.54c-0.36,0.14-0.73,0.21-1.11,0.21c-0.63-0.01-1.07-0.2-1.34-0.58c-0.27-0.37-0.4-0.84-0.4-1.43
			c0-0.6,0.16-1.08,0.45-1.45c0.29-0.36,0.67-0.55,1.16-0.56c0.54,0.01,0.93,0.2,1.17,0.56c0.24,0.36,0.35,0.81,0.35,1.34v0.24H63.3
			c0,0.42,0.11,0.76,0.32,1.03c0.21,0.29,0.52,0.43,0.94,0.44c0.19,0,0.38-0.03,0.59-0.1c0.21-0.06,0.37-0.12,0.49-0.19V9.54z
			 M65.4,7.48c0-0.35-0.07-0.66-0.22-0.92c-0.16-0.27-0.41-0.4-0.76-0.41C64.08,6.16,63.8,6.3,63.6,6.57
			C63.4,6.84,63.3,7.14,63.3,7.48H65.4z"/>
		<path class="st0" d="M67.4,6.69c0-0.35-0.01-0.64-0.03-0.86h0.47v0.74h0.01c0.09-0.23,0.22-0.42,0.38-0.58
			c0.16-0.16,0.36-0.24,0.6-0.25c0.12,0,0.23,0.02,0.33,0.04v0.5c-0.1-0.03-0.22-0.05-0.35-0.05c-0.19,0.01-0.34,0.05-0.46,0.14
			c-0.12,0.09-0.22,0.21-0.29,0.37c-0.07,0.15-0.12,0.31-0.15,0.49c-0.04,0.19-0.05,0.37-0.05,0.54v1.89H67.4V6.69z"/>
		<path class="st0" d="M70.96,4.81h-0.47V4.18h0.47V4.81z M70.48,5.83h0.47v3.83h-0.47V5.83z"/>
		<path class="st0" d="M73.44,9.35c0.23,0,0.44-0.06,0.6-0.19c0.16-0.11,0.24-0.28,0.25-0.5c0-0.23-0.1-0.4-0.28-0.53
			c-0.18-0.12-0.39-0.24-0.64-0.34c-0.11-0.05-0.23-0.11-0.33-0.17s-0.21-0.13-0.3-0.2c-0.08-0.08-0.15-0.17-0.21-0.28
			c-0.06-0.1-0.08-0.22-0.08-0.35c0-0.38,0.14-0.65,0.39-0.81c0.25-0.15,0.53-0.23,0.86-0.23c0.11,0,0.25,0.01,0.43,0.03
			c0.18,0.03,0.35,0.08,0.52,0.14L74.6,6.33c-0.27-0.12-0.56-0.18-0.85-0.18c-0.25,0-0.44,0.04-0.59,0.14
			c-0.08,0.04-0.13,0.11-0.17,0.19c-0.05,0.08-0.07,0.19-0.07,0.31c0,0.08,0.03,0.16,0.08,0.23c0.06,0.06,0.13,0.12,0.22,0.18
			c0.09,0.05,0.19,0.1,0.31,0.16c0.12,0.05,0.23,0.1,0.34,0.17c0.25,0.1,0.47,0.25,0.65,0.42c0.18,0.18,0.28,0.42,0.29,0.73
			c0,0.2-0.04,0.37-0.12,0.5c-0.09,0.14-0.19,0.25-0.32,0.34c-0.28,0.17-0.58,0.25-0.89,0.25c-0.37,0-0.73-0.06-1.07-0.18l0.04-0.47
			C72.73,9.26,73.06,9.34,73.44,9.35z"/>
		<path class="st0" d="M78.73,6.34c-0.27-0.12-0.54-0.19-0.82-0.19c-0.46,0-0.81,0.15-1.06,0.44c-0.25,0.29-0.38,0.68-0.38,1.16
			c0,0.45,0.12,0.82,0.38,1.12c0.25,0.31,0.58,0.48,1.01,0.48c0.3,0,0.58-0.06,0.86-0.17l0.04,0.44c-0.31,0.09-0.64,0.14-0.98,0.13
			c-0.62-0.01-1.07-0.21-1.37-0.61c-0.31-0.39-0.46-0.85-0.46-1.4c0-0.6,0.18-1.09,0.53-1.45c0.34-0.36,0.8-0.55,1.37-0.56
			c0.23,0,0.43,0.02,0.58,0.05c0.08,0.01,0.15,0.03,0.21,0.04c0.05,0.02,0.1,0.04,0.13,0.05L78.73,6.34z"/>
		<path class="st0" d="M80.16,4.03h0.47v2.45h0.02c0.1-0.21,0.26-0.39,0.47-0.53c0.21-0.13,0.45-0.2,0.73-0.2
			c0.51,0,0.86,0.16,1.04,0.45c0.18,0.3,0.27,0.69,0.26,1.18v2.29h-0.47V7.38c0-0.17-0.01-0.33-0.03-0.48
			c-0.02-0.15-0.06-0.27-0.13-0.38c-0.12-0.24-0.37-0.36-0.75-0.37c-0.41,0.01-0.7,0.17-0.88,0.47c-0.18,0.31-0.26,0.64-0.26,0.99
			v2.05h-0.47V4.03z"/>
		<path class="st0" d="M87.48,9.54c-0.36,0.14-0.73,0.21-1.11,0.21c-0.62-0.01-1.07-0.2-1.34-0.58c-0.27-0.37-0.4-0.84-0.4-1.43
			c0-0.6,0.16-1.08,0.45-1.45c0.29-0.36,0.67-0.55,1.16-0.56c0.54,0.01,0.93,0.2,1.17,0.56c0.24,0.36,0.35,0.81,0.35,1.34v0.24
			h-2.62c0,0.42,0.11,0.76,0.32,1.03c0.21,0.29,0.52,0.43,0.94,0.44c0.19,0,0.38-0.03,0.59-0.1c0.21-0.06,0.37-0.12,0.49-0.19V9.54z
			 M87.25,7.48c0-0.35-0.07-0.66-0.22-0.92c-0.16-0.27-0.41-0.4-0.76-0.41c-0.35,0.01-0.62,0.15-0.82,0.42
			c-0.21,0.27-0.31,0.57-0.31,0.91H87.25z"/>
		<path class="st0" d="M91.75,4.42h2.57v0.45h-2.05v1.87h1.94v0.45h-1.94v2.02h2.14v0.45h-2.66V4.42z"/>
		<path class="st0" d="M96.51,4.81h-0.47V4.18h0.47V4.81z M96.03,5.83h0.47v3.83h-0.47V5.83z"/>
		<path class="st0" d="M101.32,9.66h-0.47V9.05h-0.01c-0.25,0.47-0.65,0.7-1.19,0.7c-0.53-0.01-0.92-0.2-1.18-0.58
			c-0.27-0.38-0.4-0.85-0.4-1.43c0-0.6,0.12-1.08,0.37-1.44c0.25-0.37,0.65-0.56,1.21-0.56c0.19,0,0.36,0.03,0.5,0.08
			c0.15,0.06,0.27,0.12,0.36,0.21c0.2,0.18,0.31,0.32,0.34,0.44h0.01V4.03h0.47V9.66z M98.63,8.3c0.04,0.19,0.1,0.37,0.18,0.53
			c0.09,0.15,0.21,0.27,0.35,0.37c0.14,0.1,0.32,0.16,0.55,0.16c0.21,0,0.39-0.05,0.54-0.16c0.14-0.1,0.26-0.22,0.35-0.38
			c0.17-0.34,0.25-0.69,0.25-1.06c0-0.18-0.02-0.36-0.05-0.56c-0.04-0.18-0.1-0.35-0.2-0.51c-0.09-0.16-0.21-0.29-0.35-0.39
			c-0.15-0.1-0.33-0.14-0.54-0.14c-0.23,0-0.41,0.05-0.55,0.14c-0.15,0.09-0.26,0.22-0.35,0.38c-0.08,0.15-0.14,0.32-0.18,0.51
			c-0.04,0.19-0.05,0.38-0.05,0.57C98.58,7.93,98.59,8.11,98.63,8.3z"/>
		<path class="st0" d="M106.07,9.35c0,0.54-0.13,1-0.4,1.37c-0.27,0.37-0.74,0.56-1.4,0.57c-0.25,0-0.48-0.03-0.69-0.08
			c-0.21-0.05-0.36-0.09-0.47-0.12l0.04-0.47c0.31,0.17,0.69,0.26,1.13,0.27c0.31-0.01,0.55-0.06,0.72-0.17
			c0.18-0.1,0.31-0.24,0.4-0.42c0.09-0.18,0.15-0.39,0.17-0.62c0.02-0.23,0.03-0.49,0.03-0.76h-0.02c-0.27,0.51-0.66,0.76-1.16,0.75
			c-0.6-0.02-1.02-0.23-1.26-0.65c-0.12-0.19-0.21-0.4-0.26-0.62c-0.06-0.22-0.09-0.44-0.09-0.65c0-0.6,0.12-1.08,0.37-1.44
			c0.25-0.37,0.65-0.56,1.21-0.56c0.25,0,0.47,0.03,0.66,0.08c0.18,0.07,0.36,0.22,0.53,0.44h0.01V5.83h0.47V9.35z M103.59,8.78
			c0.17,0.31,0.45,0.47,0.85,0.48c0.43-0.01,0.73-0.17,0.91-0.5c0.17-0.31,0.25-0.65,0.25-1.01c0-0.48-0.08-0.86-0.24-1.15
			c-0.17-0.29-0.46-0.45-0.89-0.45c-0.23,0-0.41,0.05-0.55,0.14c-0.15,0.09-0.26,0.22-0.35,0.38c-0.08,0.15-0.14,0.32-0.18,0.51
			c-0.04,0.19-0.05,0.38-0.05,0.57C103.33,8.14,103.41,8.48,103.59,8.78z"/>
		<path class="st0" d="M110.37,9.54c-0.36,0.14-0.73,0.21-1.11,0.21c-0.62-0.01-1.07-0.2-1.34-0.58c-0.27-0.37-0.4-0.84-0.4-1.43
			c0-0.6,0.16-1.08,0.45-1.45c0.29-0.36,0.67-0.55,1.16-0.56c0.54,0.01,0.93,0.2,1.17,0.56c0.24,0.36,0.35,0.81,0.35,1.34v0.24
			h-2.62c0,0.42,0.11,0.76,0.32,1.03c0.21,0.29,0.52,0.43,0.94,0.44c0.19,0,0.38-0.03,0.59-0.1c0.21-0.06,0.37-0.12,0.49-0.19V9.54z
			 M110.13,7.48c0-0.35-0.07-0.66-0.22-0.92c-0.16-0.27-0.41-0.4-0.76-0.41c-0.35,0.01-0.62,0.15-0.82,0.42
			c-0.21,0.27-0.31,0.57-0.31,0.91H110.13z"/>
		<path class="st0" d="M112.14,6.74c0-0.3-0.01-0.6-0.03-0.9h0.46v0.68h0.02c0.04-0.09,0.1-0.18,0.16-0.27
			c0.06-0.09,0.14-0.17,0.23-0.25c0.1-0.08,0.21-0.14,0.35-0.19c0.14-0.04,0.31-0.07,0.5-0.07c0.47,0,0.81,0.15,1.01,0.42
			c0.2,0.27,0.29,0.62,0.29,1.05v2.45h-0.47V7.34c0-0.37-0.07-0.66-0.2-0.87c-0.15-0.21-0.38-0.31-0.71-0.31
			c-0.42,0.01-0.72,0.16-0.89,0.45c-0.09,0.14-0.15,0.28-0.19,0.44c-0.04,0.17-0.06,0.33-0.06,0.5v2.12h-0.47V6.74z"/>
		<path class="st0" d="M117.04,6.35c0.29-0.4,0.74-0.6,1.35-0.61c0.62,0.01,1.08,0.21,1.37,0.61c0.28,0.39,0.42,0.85,0.42,1.4
			c0,0.54-0.14,1-0.42,1.39c-0.29,0.4-0.75,0.61-1.37,0.62c-0.61-0.01-1.06-0.21-1.35-0.62c-0.29-0.39-0.44-0.85-0.44-1.39
			C116.6,7.2,116.75,6.74,117.04,6.35z M117.45,8.87c0.21,0.31,0.52,0.47,0.94,0.47c0.42-0.01,0.73-0.16,0.95-0.47
			c0.21-0.29,0.31-0.67,0.31-1.13c0-0.46-0.1-0.84-0.31-1.14c-0.22-0.3-0.54-0.45-0.95-0.46c-0.42,0-0.73,0.16-0.94,0.46
			c-0.22,0.31-0.33,0.69-0.33,1.14C117.12,8.2,117.23,8.58,117.45,8.87z"/>
		<path class="st0" d="M122.36,9.35c0.23,0,0.44-0.06,0.6-0.19c0.16-0.11,0.24-0.28,0.25-0.5c0-0.23-0.1-0.4-0.28-0.53
			c-0.18-0.12-0.39-0.24-0.64-0.34c-0.11-0.05-0.23-0.11-0.33-0.17s-0.21-0.13-0.3-0.2c-0.08-0.08-0.15-0.17-0.21-0.28
			c-0.06-0.1-0.08-0.22-0.08-0.35c0-0.38,0.14-0.65,0.39-0.81c0.25-0.15,0.53-0.23,0.86-0.23c0.11,0,0.25,0.01,0.43,0.03
			c0.18,0.03,0.35,0.08,0.52,0.14l-0.04,0.41c-0.27-0.12-0.56-0.18-0.85-0.18c-0.25,0-0.44,0.04-0.59,0.14
			c-0.08,0.04-0.13,0.11-0.17,0.19c-0.05,0.08-0.07,0.19-0.07,0.31c0,0.08,0.03,0.16,0.08,0.23c0.06,0.06,0.13,0.12,0.22,0.18
			c0.09,0.05,0.19,0.1,0.31,0.16c0.12,0.05,0.23,0.1,0.34,0.17c0.25,0.1,0.47,0.25,0.65,0.42c0.18,0.18,0.28,0.42,0.29,0.73
			c0,0.2-0.04,0.37-0.12,0.5c-0.09,0.14-0.19,0.25-0.32,0.34c-0.28,0.17-0.58,0.25-0.89,0.25c-0.37,0-0.73-0.06-1.07-0.18l0.04-0.47
			C121.65,9.26,121.98,9.34,122.36,9.35z"/>
		<path class="st0" d="M125.86,9.35c0.23,0,0.44-0.06,0.6-0.19c0.16-0.11,0.24-0.28,0.25-0.5c0-0.23-0.1-0.4-0.28-0.53
			c-0.18-0.12-0.39-0.24-0.64-0.34c-0.11-0.05-0.23-0.11-0.33-0.17s-0.21-0.13-0.3-0.2c-0.08-0.08-0.15-0.17-0.21-0.28
			c-0.06-0.1-0.08-0.22-0.08-0.35c0-0.38,0.14-0.65,0.39-0.81c0.25-0.15,0.53-0.23,0.86-0.23c0.11,0,0.25,0.01,0.43,0.03
			c0.18,0.03,0.35,0.08,0.52,0.14l-0.04,0.41c-0.27-0.12-0.56-0.18-0.85-0.18c-0.25,0-0.44,0.04-0.59,0.14
			c-0.08,0.04-0.13,0.11-0.17,0.19c-0.05,0.08-0.07,0.19-0.07,0.31c0,0.08,0.03,0.16,0.08,0.23c0.06,0.06,0.13,0.12,0.22,0.18
			c0.09,0.05,0.19,0.1,0.31,0.16c0.12,0.05,0.23,0.1,0.34,0.17c0.25,0.1,0.47,0.25,0.65,0.42c0.18,0.18,0.28,0.42,0.29,0.73
			c0,0.2-0.04,0.37-0.12,0.5c-0.09,0.14-0.19,0.25-0.32,0.34c-0.28,0.17-0.58,0.25-0.89,0.25c-0.37,0-0.73-0.06-1.07-0.18l0.04-0.47
			C125.15,9.26,125.48,9.34,125.86,9.35z"/>
		<path class="st0" d="M131.22,9.54c-0.36,0.14-0.73,0.21-1.11,0.21c-0.62-0.01-1.07-0.2-1.34-0.58c-0.27-0.37-0.4-0.84-0.4-1.43
			c0-0.6,0.16-1.08,0.45-1.45c0.29-0.36,0.67-0.55,1.16-0.56c0.54,0.01,0.93,0.2,1.17,0.56c0.24,0.36,0.35,0.81,0.35,1.34v0.24
			h-2.62c0,0.42,0.11,0.76,0.32,1.03c0.21,0.29,0.52,0.43,0.94,0.44c0.19,0,0.38-0.03,0.59-0.1c0.21-0.06,0.37-0.12,0.49-0.19V9.54z
			 M130.99,7.48c0-0.35-0.07-0.66-0.22-0.92c-0.16-0.27-0.41-0.4-0.76-0.41c-0.35,0.01-0.62,0.15-0.82,0.42
			c-0.21,0.27-0.31,0.57-0.31,0.91H130.99z"/>
		<path class="st0" d="M133,6.74c0-0.3-0.01-0.6-0.03-0.9h0.46v0.68h0.02c0.04-0.09,0.1-0.18,0.16-0.27
			c0.06-0.09,0.14-0.17,0.23-0.25c0.1-0.08,0.21-0.14,0.35-0.19c0.14-0.04,0.31-0.07,0.5-0.07c0.47,0,0.81,0.15,1.01,0.42
			c0.2,0.27,0.29,0.62,0.29,1.05v2.45h-0.47V7.34c0-0.37-0.07-0.66-0.2-0.87c-0.15-0.21-0.38-0.31-0.71-0.31
			c-0.42,0.01-0.72,0.16-0.89,0.45c-0.09,0.14-0.15,0.28-0.19,0.44c-0.04,0.17-0.06,0.33-0.06,0.5v2.12H133V6.74z"/>
		<path class="st0" d="M138.46,9.35c0.23,0,0.44-0.06,0.6-0.19c0.16-0.11,0.24-0.28,0.25-0.5c0-0.23-0.1-0.4-0.28-0.53
			c-0.18-0.12-0.39-0.24-0.64-0.34c-0.11-0.05-0.23-0.11-0.33-0.17s-0.21-0.13-0.3-0.2c-0.08-0.08-0.15-0.17-0.21-0.28
			c-0.06-0.1-0.08-0.22-0.08-0.35c0-0.38,0.14-0.65,0.39-0.81c0.25-0.15,0.53-0.23,0.86-0.23c0.11,0,0.25,0.01,0.43,0.03
			c0.18,0.03,0.35,0.08,0.52,0.14l-0.04,0.41c-0.27-0.12-0.56-0.18-0.85-0.18c-0.25,0-0.44,0.04-0.59,0.14
			c-0.08,0.04-0.13,0.11-0.17,0.19c-0.05,0.08-0.07,0.19-0.07,0.31c0,0.08,0.03,0.16,0.08,0.23c0.06,0.06,0.13,0.12,0.22,0.18
			c0.09,0.05,0.19,0.1,0.31,0.16c0.12,0.05,0.23,0.1,0.34,0.17c0.25,0.1,0.47,0.25,0.65,0.42c0.18,0.18,0.28,0.42,0.29,0.73
			c0,0.2-0.04,0.37-0.12,0.5c-0.09,0.14-0.19,0.25-0.32,0.34c-0.28,0.17-0.58,0.25-0.89,0.25c-0.37,0-0.73-0.06-1.07-0.18l0.04-0.47
			C137.75,9.26,138.08,9.34,138.46,9.35z"/>
		<path class="st0" d="M143.75,6.34c-0.27-0.12-0.54-0.19-0.82-0.19c-0.46,0-0.81,0.15-1.06,0.44c-0.25,0.29-0.38,0.68-0.38,1.16
			c0,0.45,0.12,0.82,0.38,1.12c0.25,0.31,0.58,0.48,1.01,0.48c0.3,0,0.58-0.06,0.86-0.17l0.04,0.44c-0.31,0.09-0.64,0.14-0.98,0.13
			c-0.62-0.01-1.07-0.21-1.37-0.61c-0.31-0.39-0.46-0.85-0.46-1.4c0-0.6,0.18-1.09,0.53-1.45c0.34-0.36,0.8-0.55,1.37-0.56
			c0.23,0,0.43,0.02,0.58,0.05c0.08,0.01,0.15,0.03,0.21,0.04c0.05,0.02,0.1,0.04,0.13,0.05L143.75,6.34z"/>
		<path class="st0" d="M145.17,4.03h0.47v2.45h0.02c0.1-0.21,0.26-0.39,0.47-0.53c0.21-0.13,0.45-0.2,0.73-0.2
			c0.51,0,0.86,0.16,1.04,0.45c0.18,0.3,0.27,0.69,0.26,1.18v2.29h-0.47V7.38c0-0.17-0.01-0.33-0.03-0.48
			c-0.02-0.15-0.06-0.27-0.13-0.38c-0.12-0.24-0.37-0.36-0.75-0.37c-0.41,0.01-0.7,0.17-0.88,0.47c-0.18,0.31-0.26,0.64-0.26,0.99
			v2.05h-0.47V4.03z"/>
		<path class="st0" d="M152.13,9.05h-0.01c-0.11,0.23-0.28,0.4-0.5,0.52c-0.22,0.12-0.46,0.18-0.71,0.19
			c-0.26,0-0.48-0.05-0.65-0.13c-0.17-0.08-0.3-0.17-0.39-0.29c-0.16-0.25-0.24-0.47-0.23-0.67c0-0.32,0.08-0.57,0.23-0.76
			c0.15-0.19,0.34-0.32,0.58-0.4c0.24-0.08,0.49-0.14,0.77-0.17c0.27-0.02,0.53-0.02,0.78-0.02h0.09v-0.2
			c0.02-0.66-0.27-0.98-0.87-0.98c-0.4,0-0.77,0.1-1.13,0.31V6.01c0.36-0.17,0.73-0.25,1.13-0.26c0.91-0.01,1.35,0.47,1.34,1.43
			v1.69c0,0.29,0.01,0.56,0.04,0.8h-0.47V9.05z M152.08,7.73h-0.13c-0.21,0-0.41,0-0.62,0.01c-0.21,0.02-0.41,0.06-0.58,0.13
			c-0.18,0.06-0.32,0.15-0.42,0.28c-0.12,0.12-0.17,0.29-0.17,0.5c0,0.25,0.08,0.42,0.24,0.52c0.15,0.11,0.34,0.17,0.56,0.17
			c0.28,0,0.49-0.06,0.65-0.17c0.15-0.1,0.27-0.23,0.34-0.38c0.08-0.15,0.12-0.31,0.13-0.46c0.01-0.16,0.01-0.28,0.01-0.38V7.73z"/>
		<path class="st0" d="M154.59,6.24h-0.77V5.83h0.77V5.56c0-0.21,0.01-0.41,0.03-0.6c0.01-0.19,0.05-0.36,0.11-0.51
			c0.07-0.15,0.17-0.28,0.31-0.37c0.14-0.09,0.32-0.13,0.56-0.13c0.08,0,0.16,0,0.25,0.01c0.08,0.02,0.15,0.04,0.2,0.07l-0.03,0.4
			c-0.1-0.05-0.23-0.07-0.38-0.07c-0.16,0-0.27,0.03-0.35,0.1c-0.08,0.08-0.14,0.18-0.17,0.29c-0.03,0.12-0.04,0.24-0.04,0.37
			c0,0.14-0.01,0.27-0.01,0.39v0.33h0.86v0.41h-0.86v3.42h-0.47V6.24z"/>
		<path class="st0" d="M159,6.24h-0.87v2.48c0,0.17,0.04,0.32,0.12,0.44c0.08,0.13,0.21,0.19,0.39,0.19c0.17,0,0.31-0.03,0.43-0.09
			l0.03,0.39c-0.05,0.02-0.13,0.04-0.23,0.07c-0.11,0.02-0.22,0.04-0.35,0.04c-0.21,0-0.37-0.03-0.49-0.1
			c-0.12-0.07-0.2-0.16-0.26-0.28c-0.05-0.12-0.08-0.26-0.1-0.41c-0.01-0.15-0.02-0.31-0.02-0.49V6.24h-0.75V5.83h0.75V4.91
			l0.47-0.17v1.09H159V6.24z"/>
		<path class="st0" d="M36.21,15.17c-0.21-0.02-0.42-0.04-0.61-0.04c-0.68,0.01-1.2,0.22-1.57,0.64c-0.37,0.42-0.56,0.96-0.56,1.62
			c0,0.67,0.18,1.21,0.55,1.62c0.36,0.42,0.89,0.63,1.58,0.64c0.18,0,0.38-0.02,0.61-0.05c0.22-0.03,0.41-0.09,0.56-0.17l0.03,0.45
			c-0.15,0.08-0.35,0.14-0.58,0.17c-0.24,0.03-0.44,0.05-0.62,0.05c-0.83-0.01-1.48-0.26-1.94-0.75c-0.47-0.49-0.71-1.14-0.71-1.96
			c0-0.81,0.24-1.46,0.71-1.96c0.47-0.49,1.11-0.74,1.93-0.75c0.17,0,0.38,0.01,0.62,0.04c0.24,0.03,0.43,0.08,0.58,0.16l-0.03,0.48
			C36.6,15.27,36.41,15.21,36.21,15.17z"/>
		<path class="st0" d="M38.67,16.7c0.29-0.4,0.74-0.6,1.35-0.61c0.62,0.01,1.08,0.21,1.37,0.61c0.28,0.39,0.42,0.85,0.42,1.4
			c0,0.54-0.14,1-0.42,1.39c-0.29,0.4-0.75,0.61-1.37,0.62c-0.61-0.01-1.06-0.21-1.35-0.62c-0.29-0.39-0.44-0.85-0.44-1.39
			C38.23,17.55,38.38,17.09,38.67,16.7z M39.08,19.22c0.21,0.31,0.52,0.47,0.94,0.47c0.42-0.01,0.73-0.16,0.95-0.47
			c0.21-0.29,0.31-0.67,0.31-1.13c0-0.46-0.1-0.84-0.31-1.14c-0.22-0.3-0.54-0.45-0.95-0.46c-0.42,0-0.73,0.16-0.94,0.46
			c-0.22,0.31-0.33,0.69-0.33,1.14C38.75,18.55,38.86,18.93,39.08,19.22z"/>
		<path class="st0" d="M43.28,17.09c0-0.3-0.01-0.6-0.03-0.9h0.46v0.68h0.02c0.04-0.09,0.1-0.18,0.16-0.27
			c0.06-0.09,0.14-0.17,0.23-0.25c0.1-0.08,0.21-0.14,0.35-0.19c0.14-0.04,0.31-0.07,0.5-0.07c0.47,0,0.81,0.15,1.01,0.42
			c0.2,0.27,0.29,0.62,0.29,1.05v2.45H45.8v-2.33c0-0.37-0.07-0.66-0.2-0.87c-0.15-0.21-0.38-0.31-0.71-0.31
			c-0.42,0.01-0.72,0.16-0.89,0.45c-0.09,0.14-0.15,0.28-0.19,0.44c-0.04,0.17-0.06,0.33-0.06,0.5v2.12h-0.47V17.09z"/>
		<path class="st0" d="M48.36,16.59h-0.77v-0.41h0.77v-0.28c0-0.21,0.01-0.41,0.03-0.6c0.01-0.19,0.05-0.36,0.11-0.51
			c0.06-0.15,0.17-0.28,0.31-0.37c0.14-0.09,0.32-0.13,0.56-0.13c0.08,0,0.16,0,0.25,0.01c0.08,0.02,0.15,0.04,0.19,0.07l-0.03,0.4
			c-0.1-0.05-0.23-0.07-0.38-0.07c-0.15,0-0.27,0.03-0.35,0.1c-0.08,0.08-0.14,0.18-0.17,0.29c-0.03,0.12-0.05,0.24-0.05,0.37
			c0,0.14-0.01,0.27-0.01,0.39v0.33h0.86v0.41h-0.86v3.42h-0.47V16.59z"/>
		<path class="st0" d="M53.69,19.89c-0.36,0.14-0.73,0.21-1.11,0.21c-0.62-0.01-1.07-0.2-1.34-0.58c-0.27-0.37-0.4-0.84-0.4-1.43
			c0-0.6,0.16-1.08,0.45-1.45c0.29-0.36,0.67-0.55,1.16-0.56c0.54,0.01,0.93,0.2,1.17,0.56c0.24,0.36,0.35,0.81,0.35,1.34v0.24
			h-2.62c0,0.42,0.11,0.76,0.32,1.03c0.21,0.29,0.52,0.43,0.94,0.44c0.19,0,0.38-0.03,0.59-0.1c0.21-0.06,0.37-0.12,0.49-0.19V19.89
			z M53.46,17.83c0-0.35-0.07-0.66-0.22-0.92c-0.16-0.27-0.41-0.4-0.76-0.41c-0.35,0.01-0.62,0.15-0.82,0.42
			c-0.21,0.27-0.31,0.57-0.31,0.91H53.46z M52.69,14.68h0.59l-0.95,1.08H52L52.69,14.68z"/>
		<path class="st0" d="M58.49,20.01h-0.47V19.4h-0.01c-0.25,0.47-0.65,0.7-1.19,0.7c-0.53-0.01-0.92-0.2-1.18-0.58
			c-0.27-0.38-0.4-0.85-0.4-1.43c0-0.6,0.12-1.08,0.37-1.44c0.25-0.37,0.65-0.56,1.21-0.56c0.19,0,0.36,0.03,0.5,0.08
			c0.15,0.06,0.27,0.12,0.36,0.21c0.2,0.18,0.31,0.32,0.34,0.44h0.01v-2.45h0.47V20.01z M55.81,18.65c0.04,0.19,0.1,0.37,0.18,0.53
			c0.09,0.15,0.21,0.27,0.35,0.37c0.14,0.1,0.32,0.16,0.55,0.16c0.21,0,0.39-0.05,0.54-0.16c0.14-0.1,0.26-0.22,0.35-0.38
			c0.17-0.34,0.25-0.69,0.25-1.06c0-0.18-0.02-0.36-0.05-0.56c-0.04-0.18-0.1-0.35-0.2-0.51c-0.09-0.16-0.21-0.29-0.35-0.39
			c-0.15-0.1-0.33-0.14-0.54-0.14c-0.23,0-0.41,0.05-0.55,0.14c-0.15,0.09-0.26,0.22-0.35,0.38c-0.08,0.15-0.14,0.32-0.18,0.51
			c-0.04,0.19-0.05,0.38-0.05,0.57C55.75,18.28,55.77,18.46,55.81,18.65z"/>
		<path class="st0" d="M62.79,19.89c-0.36,0.14-0.73,0.21-1.11,0.21c-0.62-0.01-1.07-0.2-1.34-0.58c-0.27-0.37-0.4-0.84-0.4-1.43
			c0-0.6,0.16-1.08,0.45-1.45c0.29-0.36,0.67-0.55,1.16-0.56c0.54,0.01,0.93,0.2,1.17,0.56c0.24,0.36,0.35,0.81,0.35,1.34v0.24
			h-2.62c0,0.42,0.11,0.76,0.32,1.03c0.21,0.29,0.52,0.43,0.94,0.44c0.19,0,0.38-0.03,0.59-0.1c0.21-0.06,0.37-0.12,0.49-0.19V19.89
			z M62.55,17.83c0-0.35-0.07-0.66-0.22-0.92c-0.16-0.27-0.41-0.4-0.76-0.41c-0.35,0.01-0.62,0.15-0.82,0.42
			c-0.21,0.27-0.31,0.57-0.31,0.91H62.55z M61.79,14.68h0.59l-0.95,1.08h-0.35L61.79,14.68z"/>
		<path class="st0" d="M64.56,17.04c0-0.35-0.01-0.64-0.03-0.86H65v0.74h0.01c0.09-0.23,0.22-0.42,0.38-0.58
			c0.16-0.16,0.36-0.24,0.6-0.25c0.12,0,0.23,0.02,0.33,0.04v0.5c-0.1-0.03-0.22-0.05-0.35-0.05c-0.19,0.01-0.34,0.05-0.46,0.14
			c-0.12,0.09-0.22,0.21-0.29,0.37c-0.07,0.15-0.12,0.31-0.15,0.49c-0.04,0.19-0.05,0.37-0.05,0.54v1.89h-0.47V17.04z"/>
		<path class="st0" d="M69.84,19.4h-0.02c-0.11,0.23-0.28,0.4-0.5,0.52s-0.46,0.18-0.71,0.19c-0.27,0-0.48-0.05-0.65-0.13
			c-0.17-0.08-0.3-0.17-0.39-0.29c-0.16-0.25-0.24-0.47-0.23-0.67c0-0.32,0.08-0.57,0.23-0.76c0.15-0.19,0.34-0.32,0.58-0.4
			c0.24-0.08,0.49-0.14,0.77-0.17c0.27-0.02,0.53-0.02,0.78-0.02h0.09v-0.2c0.01-0.66-0.28-0.98-0.87-0.98
			c-0.4,0-0.77,0.1-1.13,0.31v-0.46c0.35-0.17,0.73-0.25,1.13-0.26c0.91-0.01,1.35,0.47,1.34,1.43v1.69
			c-0.01,0.29,0.01,0.56,0.04,0.8h-0.47V19.4z M69.79,18.08h-0.14c-0.21,0-0.41,0-0.62,0.01c-0.22,0.02-0.41,0.06-0.59,0.13
			c-0.18,0.06-0.31,0.15-0.42,0.28c-0.12,0.12-0.17,0.29-0.17,0.5c0,0.25,0.08,0.42,0.24,0.52c0.15,0.11,0.33,0.17,0.56,0.17
			c0.27,0,0.49-0.06,0.65-0.17c0.15-0.1,0.27-0.23,0.34-0.38c0.07-0.15,0.12-0.31,0.13-0.46c0.01-0.16,0.02-0.28,0.02-0.38V18.08z"
			/>
		<path class="st0" d="M73.63,16.59h-0.87v2.48c0,0.17,0.04,0.32,0.12,0.44c0.08,0.13,0.21,0.19,0.39,0.19
			c0.17,0,0.32-0.03,0.44-0.09L73.73,20c-0.06,0.02-0.13,0.04-0.23,0.07c-0.1,0.02-0.22,0.04-0.35,0.04c-0.21,0-0.37-0.03-0.49-0.1
			c-0.12-0.07-0.2-0.16-0.26-0.28c-0.05-0.12-0.08-0.26-0.1-0.41c-0.02-0.15-0.02-0.31-0.02-0.49v-2.24h-0.75v-0.41h0.75v-0.92
			l0.47-0.17v1.09h0.87V16.59z"/>
		<path class="st0" d="M75.53,15.16h-0.47v-0.63h0.47V15.16z M75.06,16.18h0.47v3.83h-0.47V16.18z"/>
		<path class="st0" d="M77.45,16.7c0.29-0.4,0.74-0.6,1.35-0.61c0.62,0.01,1.08,0.21,1.37,0.61c0.28,0.39,0.42,0.85,0.42,1.4
			c0,0.54-0.14,1-0.42,1.39c-0.29,0.4-0.75,0.61-1.37,0.62c-0.61-0.01-1.06-0.21-1.35-0.62c-0.29-0.39-0.44-0.85-0.44-1.39
			C77.02,17.55,77.16,17.09,77.45,16.7z M77.87,19.22c0.21,0.31,0.52,0.47,0.94,0.47c0.42-0.01,0.73-0.16,0.95-0.47
			c0.21-0.29,0.31-0.67,0.31-1.13c0-0.46-0.1-0.84-0.31-1.14c-0.22-0.3-0.54-0.45-0.95-0.46c-0.42,0-0.73,0.16-0.94,0.46
			c-0.22,0.31-0.33,0.69-0.33,1.14C77.54,18.55,77.65,18.93,77.87,19.22z"/>
		<path class="st0" d="M82.07,17.09c0-0.3-0.01-0.6-0.03-0.9h0.46v0.68h0.02c0.04-0.09,0.1-0.18,0.16-0.27
			c0.06-0.09,0.14-0.17,0.23-0.25c0.1-0.08,0.21-0.14,0.35-0.19c0.14-0.04,0.31-0.07,0.5-0.07c0.47,0,0.81,0.15,1.01,0.42
			c0.2,0.27,0.29,0.62,0.29,1.05v2.45h-0.47v-2.33c0-0.37-0.07-0.66-0.2-0.87c-0.15-0.21-0.38-0.31-0.71-0.31
			c-0.42,0.01-0.72,0.16-0.89,0.45c-0.09,0.14-0.15,0.28-0.19,0.44c-0.04,0.17-0.06,0.33-0.06,0.5v2.12h-0.47V17.09z"/>
		<path class="st0" d="M90.13,19.7c0.23,0,0.44-0.06,0.6-0.19c0.16-0.11,0.24-0.28,0.25-0.5c0-0.23-0.1-0.4-0.28-0.53
			c-0.18-0.12-0.39-0.24-0.64-0.34c-0.11-0.05-0.23-0.11-0.33-0.17s-0.21-0.13-0.3-0.2c-0.08-0.08-0.15-0.17-0.21-0.28
			c-0.06-0.1-0.08-0.22-0.08-0.35c0-0.38,0.14-0.65,0.39-0.81c0.25-0.15,0.53-0.23,0.86-0.23c0.11,0,0.25,0.01,0.43,0.03
			c0.18,0.03,0.35,0.08,0.52,0.14l-0.04,0.41c-0.27-0.12-0.56-0.18-0.85-0.18c-0.25,0-0.44,0.04-0.59,0.14
			c-0.08,0.04-0.13,0.11-0.17,0.19c-0.05,0.08-0.07,0.19-0.07,0.31c0,0.08,0.03,0.16,0.08,0.23c0.06,0.06,0.13,0.12,0.22,0.18
			c0.09,0.05,0.19,0.1,0.31,0.16c0.12,0.05,0.23,0.1,0.34,0.17c0.25,0.1,0.47,0.25,0.65,0.42c0.18,0.18,0.28,0.42,0.29,0.73
			c0,0.2-0.04,0.37-0.12,0.5c-0.09,0.14-0.19,0.25-0.32,0.34c-0.28,0.17-0.58,0.25-0.89,0.25c-0.37,0-0.73-0.06-1.07-0.18l0.04-0.47
			C89.42,19.61,89.75,19.69,90.13,19.7z"/>
		<path class="st0" d="M95.91,19.11c0,0.29,0,0.59,0.03,0.9h-0.46v-0.68h-0.01c-0.04,0.08-0.08,0.17-0.14,0.25
			c-0.06,0.09-0.14,0.18-0.23,0.26c-0.09,0.07-0.21,0.13-0.35,0.18c-0.14,0.06-0.31,0.08-0.51,0.08c-0.47,0-0.8-0.15-1.01-0.42
			c-0.21-0.27-0.31-0.62-0.3-1.05v-2.45h0.47v2.33c0,0.37,0.07,0.65,0.22,0.86c0.14,0.22,0.37,0.33,0.69,0.33
			c0.21,0,0.4-0.05,0.55-0.14c0.15-0.08,0.26-0.2,0.34-0.33c0.09-0.14,0.15-0.29,0.19-0.45c0.03-0.16,0.05-0.32,0.05-0.48v-2.12
			h0.47V19.11z"/>
		<path class="st0" d="M98.16,15.16h-0.47v-0.63h0.47V15.16z M97.68,16.18h0.47v3.83h-0.47V16.18z"/>
		<path class="st0" d="M100.64,19.7c0.23,0,0.44-0.06,0.6-0.19c0.16-0.11,0.24-0.28,0.25-0.5c0-0.23-0.1-0.4-0.28-0.53
			c-0.18-0.12-0.39-0.24-0.64-0.34c-0.11-0.05-0.23-0.11-0.33-0.17s-0.21-0.13-0.3-0.2c-0.08-0.08-0.15-0.17-0.21-0.28
			c-0.06-0.1-0.08-0.22-0.08-0.35c0-0.38,0.14-0.65,0.39-0.81c0.25-0.15,0.53-0.23,0.86-0.23c0.11,0,0.25,0.01,0.43,0.03
			c0.18,0.03,0.35,0.08,0.52,0.14l-0.04,0.41c-0.27-0.12-0.56-0.18-0.85-0.18c-0.25,0-0.44,0.04-0.59,0.14
			c-0.08,0.04-0.13,0.11-0.17,0.19c-0.05,0.08-0.07,0.19-0.07,0.31c0,0.08,0.03,0.16,0.08,0.23c0.06,0.06,0.13,0.12,0.22,0.18
			c0.09,0.05,0.19,0.1,0.31,0.16c0.12,0.05,0.23,0.1,0.34,0.17c0.25,0.1,0.47,0.25,0.65,0.42c0.18,0.18,0.28,0.42,0.29,0.73
			c0,0.2-0.04,0.37-0.12,0.5c-0.09,0.14-0.19,0.25-0.32,0.34c-0.28,0.17-0.58,0.25-0.89,0.25c-0.37,0-0.73-0.06-1.07-0.18l0.04-0.47
			C99.93,19.61,100.26,19.69,100.64,19.7z"/>
		<path class="st0" d="M104.14,19.7c0.23,0,0.44-0.06,0.6-0.19c0.16-0.11,0.24-0.28,0.25-0.5c0-0.23-0.1-0.4-0.28-0.53
			c-0.18-0.12-0.39-0.24-0.64-0.34c-0.11-0.05-0.23-0.11-0.33-0.17s-0.21-0.13-0.3-0.2c-0.08-0.08-0.15-0.17-0.21-0.28
			c-0.06-0.1-0.08-0.22-0.08-0.35c0-0.38,0.14-0.65,0.39-0.81c0.25-0.15,0.53-0.23,0.86-0.23c0.11,0,0.25,0.01,0.43,0.03
			c0.18,0.03,0.35,0.08,0.52,0.14l-0.04,0.41c-0.27-0.12-0.56-0.18-0.85-0.18c-0.25,0-0.44,0.04-0.59,0.14
			c-0.08,0.04-0.13,0.11-0.17,0.19c-0.05,0.08-0.07,0.19-0.07,0.31c0,0.08,0.03,0.16,0.08,0.23c0.06,0.06,0.13,0.12,0.22,0.18
			c0.09,0.05,0.19,0.1,0.31,0.16c0.12,0.05,0.23,0.1,0.34,0.17c0.25,0.1,0.47,0.25,0.65,0.42c0.18,0.18,0.28,0.42,0.29,0.73
			c0,0.2-0.04,0.37-0.12,0.5c-0.09,0.14-0.19,0.25-0.32,0.34c-0.28,0.17-0.58,0.25-0.89,0.25c-0.37,0-0.73-0.06-1.07-0.18l0.04-0.47
			C103.44,19.61,103.77,19.69,104.14,19.7z"/>
		<path class="st0" d="M109.51,19.89c-0.36,0.14-0.73,0.21-1.11,0.21c-0.62-0.01-1.07-0.2-1.34-0.58c-0.27-0.37-0.4-0.84-0.4-1.43
			c0-0.6,0.16-1.08,0.45-1.45c0.29-0.36,0.67-0.55,1.16-0.56c0.54,0.01,0.93,0.2,1.17,0.56c0.24,0.36,0.35,0.81,0.35,1.34v0.24
			h-2.62c0,0.42,0.11,0.76,0.32,1.03c0.21,0.29,0.52,0.43,0.94,0.44c0.19,0,0.38-0.03,0.59-0.1c0.21-0.06,0.37-0.12,0.49-0.19V19.89
			z M109.28,17.83c0-0.35-0.07-0.66-0.22-0.92c-0.16-0.27-0.41-0.4-0.76-0.41c-0.35,0.01-0.62,0.15-0.82,0.42
			c-0.21,0.27-0.31,0.57-0.31,0.91H109.28z"/>
		<path class="st0" d="M36.21,25.52c-0.21-0.02-0.42-0.04-0.61-0.04c-0.68,0.01-1.2,0.22-1.57,0.64c-0.37,0.42-0.56,0.96-0.56,1.62
			c0,0.67,0.18,1.21,0.55,1.62C34.38,29.78,34.91,30,35.6,30c0.18,0,0.38-0.02,0.61-0.05c0.22-0.03,0.41-0.09,0.56-0.17l0.03,0.45
			c-0.15,0.08-0.35,0.14-0.58,0.17c-0.24,0.03-0.44,0.05-0.62,0.05c-0.83-0.01-1.48-0.26-1.94-0.75c-0.47-0.49-0.71-1.14-0.71-1.96
			c0-0.81,0.24-1.46,0.71-1.96c0.47-0.49,1.11-0.74,1.93-0.75c0.17,0,0.38,0.01,0.62,0.04c0.24,0.03,0.43,0.08,0.58,0.16l-0.03,0.48
			C36.6,25.62,36.41,25.56,36.21,25.52z"/>
		<path class="st0" d="M38.67,27.05c0.29-0.4,0.74-0.6,1.35-0.61c0.62,0.01,1.08,0.21,1.37,0.61c0.28,0.39,0.42,0.85,0.42,1.4
			c0,0.54-0.14,1-0.42,1.39c-0.29,0.4-0.75,0.61-1.37,0.62c-0.61-0.01-1.06-0.21-1.35-0.62c-0.29-0.39-0.44-0.85-0.44-1.39
			C38.23,27.9,38.38,27.44,38.67,27.05z M39.08,29.57c0.21,0.31,0.52,0.47,0.94,0.47c0.42-0.01,0.73-0.16,0.95-0.47
			c0.21-0.29,0.31-0.67,0.31-1.13c0-0.46-0.1-0.84-0.31-1.14c-0.22-0.3-0.54-0.45-0.95-0.46c-0.42,0-0.73,0.16-0.94,0.46
			c-0.22,0.31-0.33,0.69-0.33,1.14C38.75,28.9,38.86,29.28,39.08,29.57z"/>
		<path class="st0" d="M43.28,27.44c0-0.3-0.01-0.6-0.03-0.9h0.46v0.68h0.02c0.04-0.09,0.1-0.18,0.16-0.27
			c0.06-0.09,0.14-0.17,0.23-0.25c0.1-0.08,0.21-0.14,0.35-0.19c0.14-0.04,0.31-0.07,0.5-0.07c0.47,0,0.81,0.15,1.01,0.42
			c0.2,0.27,0.29,0.62,0.29,1.05v2.45H45.8v-2.33c0-0.37-0.07-0.66-0.2-0.87c-0.15-0.21-0.38-0.31-0.71-0.31
			c-0.42,0.01-0.72,0.16-0.89,0.45c-0.09,0.14-0.15,0.28-0.19,0.44c-0.04,0.17-0.06,0.33-0.06,0.5v2.12h-0.47V27.44z"/>
		<path class="st0" d="M48.36,26.94h-0.77v-0.41h0.77v-0.28c0-0.21,0.01-0.41,0.03-0.6c0.01-0.19,0.05-0.36,0.11-0.51
			c0.06-0.15,0.17-0.28,0.31-0.37c0.14-0.09,0.32-0.13,0.56-0.13c0.08,0,0.16,0,0.25,0.01c0.08,0.02,0.15,0.04,0.19,0.07l-0.03,0.4
			c-0.1-0.05-0.23-0.07-0.38-0.07c-0.15,0-0.27,0.03-0.35,0.1c-0.08,0.08-0.14,0.18-0.17,0.29c-0.03,0.12-0.05,0.24-0.05,0.37
			c0,0.14-0.01,0.27-0.01,0.39v0.33h0.86v0.41h-0.86v3.42h-0.47V26.94z"/>
		<path class="st0" d="M53.69,30.24c-0.36,0.14-0.73,0.21-1.11,0.21c-0.62-0.01-1.07-0.2-1.34-0.58c-0.27-0.37-0.4-0.84-0.4-1.43
			c0-0.6,0.16-1.08,0.45-1.45c0.29-0.36,0.67-0.55,1.16-0.56c0.54,0.01,0.93,0.2,1.17,0.56c0.24,0.36,0.35,0.81,0.35,1.34v0.24
			h-2.62c0,0.42,0.11,0.76,0.32,1.03c0.21,0.29,0.52,0.43,0.94,0.44c0.19,0,0.38-0.03,0.59-0.1c0.21-0.06,0.37-0.12,0.49-0.19V30.24
			z M53.46,28.18c0-0.35-0.07-0.66-0.22-0.92c-0.16-0.27-0.41-0.4-0.76-0.41c-0.35,0.01-0.62,0.15-0.82,0.42
			c-0.21,0.27-0.31,0.57-0.31,0.91H53.46z"/>
		<path class="st0" d="M58.49,30.36h-0.47v-0.61h-0.01c-0.25,0.47-0.65,0.7-1.19,0.7c-0.53-0.01-0.92-0.2-1.18-0.58
			c-0.27-0.38-0.4-0.85-0.4-1.43c0-0.6,0.12-1.08,0.37-1.44c0.25-0.37,0.65-0.56,1.21-0.56c0.19,0,0.36,0.03,0.5,0.08
			c0.15,0.06,0.27,0.12,0.36,0.21c0.2,0.18,0.31,0.32,0.34,0.44h0.01v-2.45h0.47V30.36z M55.81,29c0.04,0.19,0.1,0.37,0.18,0.53
			c0.09,0.15,0.21,0.27,0.35,0.37c0.14,0.1,0.32,0.16,0.55,0.16c0.21,0,0.39-0.05,0.54-0.16c0.14-0.1,0.26-0.22,0.35-0.38
			c0.17-0.34,0.25-0.69,0.25-1.06c0-0.18-0.02-0.36-0.05-0.56c-0.04-0.18-0.1-0.35-0.2-0.51c-0.09-0.16-0.21-0.29-0.35-0.39
			c-0.15-0.1-0.33-0.14-0.54-0.14c-0.23,0-0.41,0.05-0.55,0.14c-0.15,0.09-0.26,0.22-0.35,0.38c-0.08,0.15-0.14,0.32-0.18,0.51
			c-0.04,0.19-0.05,0.38-0.05,0.57C55.75,28.63,55.77,28.81,55.81,29z"/>
		<path class="st0" d="M62.79,30.24c-0.36,0.14-0.73,0.21-1.11,0.21c-0.62-0.01-1.07-0.2-1.34-0.58c-0.27-0.37-0.4-0.84-0.4-1.43
			c0-0.6,0.16-1.08,0.45-1.45c0.29-0.36,0.67-0.55,1.16-0.56c0.54,0.01,0.93,0.2,1.17,0.56c0.24,0.36,0.35,0.81,0.35,1.34v0.24
			h-2.62c0,0.42,0.11,0.76,0.32,1.03c0.21,0.29,0.52,0.43,0.94,0.44c0.19,0,0.38-0.03,0.59-0.1c0.21-0.06,0.37-0.12,0.49-0.19V30.24
			z M62.55,28.18c0-0.35-0.07-0.66-0.22-0.92c-0.16-0.27-0.41-0.4-0.76-0.41c-0.35,0.01-0.62,0.15-0.82,0.42
			c-0.21,0.27-0.31,0.57-0.31,0.91H62.55z"/>
		<path class="st0" d="M64.56,27.39c0-0.35-0.01-0.64-0.03-0.86H65v0.74h0.01c0.09-0.23,0.22-0.42,0.38-0.58
			c0.16-0.16,0.36-0.24,0.6-0.25c0.12,0,0.23,0.02,0.33,0.04v0.5c-0.1-0.03-0.22-0.05-0.35-0.05c-0.19,0.01-0.34,0.05-0.46,0.14
			c-0.12,0.09-0.22,0.21-0.29,0.37c-0.07,0.15-0.12,0.31-0.15,0.49c-0.04,0.19-0.05,0.37-0.05,0.54v1.89h-0.47V27.39z"/>
		<path class="st0" d="M69.84,29.75h-0.02c-0.11,0.23-0.28,0.4-0.5,0.52s-0.46,0.18-0.71,0.19c-0.27,0-0.48-0.05-0.65-0.13
			c-0.17-0.08-0.3-0.17-0.39-0.29c-0.16-0.25-0.24-0.47-0.23-0.67c0-0.32,0.08-0.57,0.23-0.76c0.15-0.19,0.34-0.32,0.58-0.4
			c0.24-0.08,0.49-0.14,0.77-0.17c0.27-0.02,0.53-0.02,0.78-0.02h0.09v-0.2c0.01-0.66-0.28-0.98-0.87-0.98
			c-0.4,0-0.77,0.1-1.13,0.31v-0.46c0.35-0.17,0.73-0.25,1.13-0.26c0.91-0.01,1.35,0.47,1.34,1.43v1.69
			c-0.01,0.29,0.01,0.56,0.04,0.8h-0.47V29.75z M69.79,28.43h-0.14c-0.21,0-0.41,0-0.62,0.01c-0.22,0.02-0.41,0.06-0.59,0.13
			c-0.18,0.06-0.31,0.15-0.42,0.28c-0.12,0.12-0.17,0.29-0.17,0.5c0,0.25,0.08,0.42,0.24,0.52c0.15,0.11,0.33,0.17,0.56,0.17
			c0.27,0,0.49-0.06,0.65-0.17c0.15-0.1,0.27-0.23,0.34-0.38c0.07-0.15,0.12-0.31,0.13-0.46c0.01-0.16,0.02-0.28,0.02-0.38V28.43z"
			/>
		<path class="st0" d="M71.62,29.96l2.3-3.02h-2.21v-0.41h2.76v0.41l-2.3,3.02h2.3v0.41h-2.85V29.96z"/>
		<path class="st0" d="M76.37,25.51h-0.47v-0.63h0.47V25.51z M75.89,26.53h0.47v3.83h-0.47V26.53z"/>
		<path class="st0" d="M78.29,27.05c0.29-0.4,0.74-0.6,1.35-0.61c0.62,0.01,1.08,0.21,1.37,0.61c0.28,0.39,0.42,0.85,0.42,1.4
			c0,0.54-0.14,1-0.42,1.39c-0.29,0.4-0.75,0.61-1.37,0.62c-0.61-0.01-1.06-0.21-1.35-0.62c-0.29-0.39-0.44-0.85-0.44-1.39
			C77.85,27.9,78,27.44,78.29,27.05z M78.7,29.57c0.21,0.31,0.52,0.47,0.94,0.47c0.42-0.01,0.73-0.16,0.95-0.47
			c0.21-0.29,0.31-0.67,0.31-1.13c0-0.46-0.1-0.84-0.31-1.14c-0.22-0.3-0.54-0.45-0.95-0.46c-0.42,0-0.73,0.16-0.94,0.46
			c-0.22,0.31-0.33,0.69-0.33,1.14C78.37,28.9,78.48,29.28,78.7,29.57z"/>
		<path class="st0" d="M82.9,27.44c0-0.3-0.01-0.6-0.03-0.9h0.46v0.68h0.02c0.04-0.09,0.1-0.18,0.16-0.27
			c0.06-0.09,0.14-0.17,0.23-0.25c0.1-0.08,0.21-0.14,0.35-0.19c0.14-0.04,0.31-0.07,0.5-0.07c0.47,0,0.81,0.15,1.01,0.42
			c0.2,0.27,0.29,0.62,0.29,1.05v2.45h-0.47v-2.33c0-0.37-0.07-0.66-0.2-0.87c-0.15-0.21-0.38-0.31-0.71-0.31
			c-0.42,0.01-0.72,0.16-0.89,0.45c-0.09,0.14-0.15,0.28-0.19,0.44c-0.04,0.17-0.06,0.33-0.06,0.5v2.12H82.9V27.44z"/>
		<path class="st0" d="M90.23,30.24c-0.36,0.14-0.73,0.21-1.11,0.21c-0.62-0.01-1.07-0.2-1.34-0.58c-0.27-0.37-0.4-0.84-0.4-1.43
			c0-0.6,0.16-1.08,0.45-1.45c0.29-0.36,0.67-0.55,1.16-0.56c0.54,0.01,0.93,0.2,1.17,0.56c0.24,0.36,0.35,0.81,0.35,1.34v0.24
			h-2.62c0,0.42,0.11,0.76,0.32,1.03c0.21,0.29,0.52,0.43,0.94,0.44c0.19,0,0.38-0.03,0.59-0.1c0.21-0.06,0.37-0.12,0.49-0.19V30.24
			z M89.99,28.18c0-0.35-0.07-0.66-0.22-0.92c-0.16-0.27-0.41-0.4-0.76-0.41c-0.35,0.01-0.62,0.15-0.82,0.42
			c-0.21,0.27-0.31,0.57-0.31,0.91H89.99z"/>
		<path class="st0" d="M95.66,30c0.34,0,0.62-0.09,0.84-0.26c0.22-0.17,0.33-0.44,0.34-0.81c0-0.26-0.13-0.47-0.38-0.65
			c-0.11-0.09-0.24-0.17-0.38-0.25s-0.29-0.16-0.44-0.24c-0.15-0.08-0.29-0.18-0.44-0.27c-0.15-0.09-0.28-0.19-0.39-0.3
			c-0.25-0.21-0.37-0.49-0.38-0.82c0-0.43,0.17-0.76,0.49-1.01c0.31-0.24,0.7-0.36,1.17-0.36c0.13,0,0.29,0.01,0.48,0.03
			c0.19,0.03,0.37,0.08,0.55,0.14l-0.08,0.47c-0.26-0.13-0.57-0.2-0.95-0.2c-0.13,0-0.27,0.01-0.4,0.04
			c-0.13,0.03-0.25,0.08-0.37,0.16c-0.1,0.06-0.19,0.15-0.26,0.27c-0.07,0.12-0.1,0.27-0.1,0.44c0,0.12,0.03,0.24,0.1,0.35
			c0.07,0.1,0.16,0.2,0.27,0.28c0.12,0.08,0.25,0.17,0.39,0.24c0.14,0.08,0.29,0.16,0.44,0.25c0.31,0.15,0.59,0.34,0.83,0.57
			c0.12,0.11,0.21,0.24,0.28,0.39c0.06,0.15,0.1,0.32,0.1,0.52c-0.01,0.52-0.19,0.9-0.55,1.13c-0.35,0.23-0.74,0.35-1.17,0.35
			c-0.51-0.01-0.91-0.08-1.19-0.23l0.05-0.53C94.8,29.9,95.18,30,95.66,30z"/>
		<path class="st0" d="M100.26,30.36H99.7l-1.3-3.83h0.52l1.06,3.31H100l1.11-3.31h0.5L100.26,30.36z"/>
		<path class="st0" d="M103.32,25.51h-0.47v-0.63h0.47V25.51z M102.85,26.53h0.47v3.83h-0.47V26.53z"/>
		<path class="st0" d="M104.74,29.96l2.3-3.02h-2.21v-0.41h2.76v0.41l-2.3,3.02h2.3v0.41h-2.85V29.96z"/>
		<path class="st0" d="M108.66,29.96l2.3-3.02h-2.21v-0.41h2.76v0.41l-2.3,3.02h2.3v0.41h-2.85V29.96z"/>
		<path class="st0" d="M115.5,30.24c-0.36,0.14-0.73,0.21-1.11,0.21c-0.62-0.01-1.07-0.2-1.34-0.58c-0.27-0.37-0.4-0.84-0.4-1.43
			c0-0.6,0.16-1.08,0.45-1.45c0.29-0.36,0.67-0.55,1.16-0.56c0.54,0.01,0.93,0.2,1.17,0.56c0.24,0.36,0.35,0.81,0.35,1.34v0.24
			h-2.62c0,0.42,0.11,0.76,0.32,1.03c0.21,0.29,0.52,0.43,0.94,0.44c0.19,0,0.38-0.03,0.59-0.1c0.21-0.06,0.37-0.12,0.49-0.19V30.24
			z M115.26,28.18c0-0.35-0.07-0.66-0.22-0.92c-0.16-0.27-0.41-0.4-0.76-0.41c-0.35,0.01-0.62,0.15-0.82,0.42
			c-0.21,0.27-0.31,0.57-0.31,0.91H115.26z"/>
		<path class="st0" d="M117.27,27.39c0-0.35-0.01-0.64-0.03-0.86h0.47v0.74h0.01c0.09-0.23,0.22-0.42,0.38-0.58
			c0.16-0.16,0.36-0.24,0.6-0.25c0.12,0,0.23,0.02,0.33,0.04v0.5c-0.1-0.03-0.22-0.05-0.35-0.05c-0.19,0.01-0.34,0.05-0.46,0.14
			c-0.12,0.09-0.22,0.21-0.29,0.37c-0.07,0.15-0.12,0.31-0.15,0.49c-0.04,0.19-0.05,0.37-0.05,0.54v1.89h-0.47V27.39z"/>
		<path class="st0" d="M122.55,29.75h-0.02c-0.11,0.23-0.28,0.4-0.5,0.52s-0.46,0.18-0.71,0.19c-0.27,0-0.48-0.05-0.65-0.13
			c-0.17-0.08-0.3-0.17-0.39-0.29c-0.16-0.25-0.24-0.47-0.23-0.67c0-0.32,0.08-0.57,0.23-0.76c0.15-0.19,0.34-0.32,0.58-0.4
			c0.24-0.08,0.49-0.14,0.77-0.17c0.27-0.02,0.53-0.02,0.78-0.02h0.09v-0.2c0.01-0.66-0.28-0.98-0.87-0.98
			c-0.4,0-0.77,0.1-1.13,0.31v-0.46c0.35-0.17,0.73-0.25,1.13-0.26c0.91-0.01,1.35,0.47,1.34,1.43v1.69
			c-0.01,0.29,0.01,0.56,0.04,0.8h-0.47V29.75z M122.51,28.43h-0.14c-0.21,0-0.41,0-0.62,0.01c-0.22,0.02-0.41,0.06-0.59,0.13
			c-0.18,0.06-0.31,0.15-0.42,0.28c-0.12,0.12-0.17,0.29-0.17,0.5c0,0.25,0.08,0.42,0.24,0.52c0.15,0.11,0.33,0.17,0.56,0.17
			c0.27,0,0.49-0.06,0.65-0.17c0.15-0.1,0.27-0.23,0.34-0.38c0.07-0.15,0.12-0.31,0.13-0.46c0.01-0.16,0.02-0.28,0.02-0.38V28.43z"
			/>
		<path class="st0" d="M36.21,35.87c-0.21-0.02-0.42-0.04-0.61-0.04c-0.68,0.01-1.2,0.22-1.57,0.64c-0.37,0.42-0.56,0.96-0.56,1.62
			c0,0.67,0.18,1.21,0.55,1.62c0.36,0.42,0.89,0.63,1.58,0.64c0.18,0,0.38-0.02,0.61-0.05c0.22-0.03,0.41-0.09,0.56-0.17l0.03,0.45
			c-0.15,0.08-0.35,0.14-0.58,0.17c-0.24,0.03-0.44,0.05-0.62,0.05c-0.83-0.01-1.48-0.26-1.94-0.75c-0.47-0.49-0.71-1.14-0.71-1.96
			c0-0.81,0.24-1.46,0.71-1.96c0.47-0.49,1.11-0.74,1.93-0.75c0.17,0,0.38,0.01,0.62,0.04c0.24,0.03,0.43,0.08,0.58,0.16l-0.03,0.48
			C36.6,35.97,36.41,35.91,36.21,35.87z"/>
		<path class="st0" d="M38.67,37.4c0.29-0.4,0.74-0.6,1.35-0.61c0.62,0.01,1.08,0.21,1.37,0.61c0.28,0.39,0.42,0.85,0.42,1.4
			c0,0.54-0.14,1-0.42,1.39c-0.29,0.4-0.75,0.61-1.37,0.62c-0.61-0.01-1.06-0.21-1.35-0.62c-0.29-0.39-0.44-0.85-0.44-1.39
			C38.23,38.25,38.38,37.79,38.67,37.4z M39.08,39.92c0.21,0.31,0.52,0.47,0.94,0.47c0.42-0.01,0.73-0.16,0.95-0.47
			c0.21-0.29,0.31-0.67,0.31-1.13c0-0.46-0.1-0.84-0.31-1.14c-0.22-0.3-0.54-0.45-0.95-0.46c-0.42,0-0.73,0.16-0.94,0.46
			c-0.22,0.31-0.33,0.69-0.33,1.14C38.75,39.25,38.86,39.63,39.08,39.92z"/>
		<path class="st0" d="M43.28,37.78c0-0.3-0.01-0.6-0.03-0.9h0.46v0.68h0.02c0.04-0.09,0.1-0.18,0.16-0.27
			c0.06-0.09,0.14-0.17,0.23-0.25c0.1-0.08,0.21-0.14,0.35-0.19c0.14-0.04,0.31-0.07,0.5-0.07c0.47,0,0.81,0.15,1.01,0.42
			c0.2,0.27,0.29,0.62,0.29,1.05v2.45H45.8v-2.33c0-0.37-0.07-0.66-0.2-0.87c-0.15-0.21-0.38-0.31-0.71-0.31
			c-0.42,0.01-0.72,0.16-0.89,0.45c-0.09,0.14-0.15,0.28-0.19,0.44c-0.04,0.17-0.06,0.33-0.06,0.5v2.12h-0.47V37.78z"/>
		<path class="st0" d="M48.36,37.29h-0.77v-0.41h0.77v-0.28c0-0.21,0.01-0.41,0.03-0.6c0.01-0.19,0.05-0.36,0.11-0.51
			c0.06-0.15,0.17-0.28,0.31-0.37c0.14-0.09,0.32-0.13,0.56-0.13c0.08,0,0.16,0,0.25,0.01c0.08,0.02,0.15,0.04,0.19,0.07l-0.03,0.4
			c-0.1-0.05-0.23-0.07-0.38-0.07c-0.15,0-0.27,0.03-0.35,0.1c-0.08,0.08-0.14,0.18-0.17,0.29c-0.03,0.12-0.05,0.24-0.05,0.37
			c0,0.14-0.01,0.27-0.01,0.39v0.33h0.86v0.41h-0.86v3.42h-0.47V37.29z"/>
		<path class="st0" d="M53.69,40.59c-0.36,0.14-0.73,0.21-1.11,0.21c-0.62-0.01-1.07-0.2-1.34-0.58c-0.27-0.37-0.4-0.84-0.4-1.43
			c0-0.6,0.16-1.08,0.45-1.45c0.29-0.36,0.67-0.55,1.16-0.56c0.54,0.01,0.93,0.2,1.17,0.56c0.24,0.36,0.35,0.81,0.35,1.34v0.24
			h-2.62c0,0.42,0.11,0.76,0.32,1.03c0.21,0.29,0.52,0.43,0.94,0.44c0.19,0,0.38-0.03,0.59-0.1c0.21-0.06,0.37-0.12,0.49-0.19V40.59
			z M53.46,38.53c0-0.35-0.07-0.66-0.22-0.92c-0.16-0.27-0.41-0.4-0.76-0.41c-0.35,0.01-0.62,0.15-0.82,0.42
			c-0.21,0.27-0.31,0.57-0.31,0.91H53.46z"/>
		<path class="st0" d="M58.49,40.71h-0.47V40.1h-0.01c-0.25,0.47-0.65,0.7-1.19,0.7c-0.53-0.01-0.92-0.2-1.18-0.58
			c-0.27-0.38-0.4-0.85-0.4-1.43c0-0.6,0.12-1.08,0.37-1.44c0.25-0.37,0.65-0.56,1.21-0.56c0.19,0,0.36,0.03,0.5,0.08
			c0.15,0.06,0.27,0.12,0.36,0.21c0.2,0.18,0.31,0.32,0.34,0.44h0.01v-2.45h0.47V40.71z M55.81,39.35c0.04,0.19,0.1,0.37,0.18,0.53
			c0.09,0.15,0.21,0.27,0.35,0.37c0.14,0.1,0.32,0.16,0.55,0.16c0.21,0,0.39-0.05,0.54-0.16c0.14-0.1,0.26-0.22,0.35-0.38
			c0.17-0.34,0.25-0.69,0.25-1.06c0-0.18-0.02-0.36-0.05-0.56c-0.04-0.18-0.1-0.35-0.2-0.51c-0.09-0.16-0.21-0.29-0.35-0.39
			c-0.15-0.1-0.33-0.14-0.54-0.14c-0.23,0-0.41,0.05-0.55,0.14c-0.15,0.09-0.26,0.22-0.35,0.38c-0.08,0.15-0.14,0.32-0.18,0.51
			c-0.04,0.19-0.05,0.38-0.05,0.57C55.75,38.98,55.77,39.16,55.81,39.35z"/>
		<path class="st0" d="M62.79,40.59c-0.36,0.14-0.73,0.21-1.11,0.21c-0.62-0.01-1.07-0.2-1.34-0.58c-0.27-0.37-0.4-0.84-0.4-1.43
			c0-0.6,0.16-1.08,0.45-1.45c0.29-0.36,0.67-0.55,1.16-0.56c0.54,0.01,0.93,0.2,1.17,0.56c0.24,0.36,0.35,0.81,0.35,1.34v0.24
			h-2.62c0,0.42,0.11,0.76,0.32,1.03c0.21,0.29,0.52,0.43,0.94,0.44c0.19,0,0.38-0.03,0.59-0.1c0.21-0.06,0.37-0.12,0.49-0.19V40.59
			z M62.55,38.53c0-0.35-0.07-0.66-0.22-0.92c-0.16-0.27-0.41-0.4-0.76-0.41c-0.35,0.01-0.62,0.15-0.82,0.42
			c-0.21,0.27-0.31,0.57-0.31,0.91H62.55z"/>
		<path class="st0" d="M64.56,37.74c0-0.35-0.01-0.64-0.03-0.86H65v0.74h0.01c0.09-0.23,0.22-0.42,0.38-0.58
			c0.16-0.16,0.36-0.24,0.6-0.25c0.12,0,0.23,0.02,0.33,0.04v0.5c-0.1-0.03-0.22-0.05-0.35-0.05c-0.19,0.01-0.34,0.05-0.46,0.14
			c-0.12,0.09-0.22,0.21-0.29,0.37c-0.07,0.15-0.12,0.31-0.15,0.49c-0.04,0.19-0.05,0.37-0.05,0.54v1.89h-0.47V37.74z"/>
		<path class="st0" d="M69.84,40.1h-0.02c-0.11,0.23-0.28,0.4-0.5,0.52s-0.46,0.18-0.71,0.19c-0.27,0-0.48-0.05-0.65-0.13
			c-0.17-0.08-0.3-0.17-0.39-0.29c-0.16-0.25-0.24-0.47-0.23-0.67c0-0.32,0.08-0.57,0.23-0.76c0.15-0.19,0.34-0.32,0.58-0.4
			c0.24-0.08,0.49-0.14,0.77-0.17c0.27-0.02,0.53-0.02,0.78-0.02h0.09v-0.2c0.01-0.66-0.28-0.98-0.87-0.98
			c-0.4,0-0.77,0.1-1.13,0.31v-0.46c0.35-0.17,0.73-0.25,1.13-0.26c0.91-0.01,1.35,0.47,1.34,1.43v1.69
			c-0.01,0.29,0.01,0.56,0.04,0.8h-0.47V40.1z M69.79,38.78h-0.14c-0.21,0-0.41,0-0.62,0.01c-0.22,0.02-0.41,0.06-0.59,0.13
			c-0.18,0.06-0.31,0.15-0.42,0.28c-0.12,0.12-0.17,0.29-0.17,0.5c0,0.25,0.08,0.42,0.24,0.52c0.15,0.11,0.33,0.17,0.56,0.17
			c0.27,0,0.49-0.06,0.65-0.17c0.15-0.1,0.27-0.23,0.34-0.38c0.07-0.15,0.12-0.31,0.13-0.46c0.01-0.16,0.02-0.28,0.02-0.38V38.78z"
			/>
		<path class="st0" d="M71.62,40.31l2.3-3.02h-2.21v-0.41h2.76v0.41l-2.3,3.02h2.3v0.41h-2.85V40.31z"/>
		<path class="st0" d="M76.37,35.86h-0.47v-0.63h0.47V35.86z M75.89,36.88h0.47v3.83h-0.47V36.88z"/>
		<path class="st0" d="M81.13,39.81c0,0.29,0,0.59,0.03,0.9H80.7v-0.68h-0.01c-0.04,0.08-0.08,0.17-0.14,0.25
			c-0.06,0.09-0.14,0.18-0.23,0.26c-0.09,0.07-0.21,0.13-0.35,0.18c-0.14,0.06-0.31,0.08-0.51,0.08c-0.47,0-0.8-0.15-1.01-0.42
			c-0.21-0.27-0.31-0.62-0.3-1.05v-2.45h0.47v2.33c0,0.37,0.07,0.65,0.22,0.86c0.14,0.22,0.37,0.33,0.69,0.33
			c0.21,0,0.4-0.05,0.55-0.14c0.15-0.08,0.26-0.2,0.34-0.33c0.09-0.14,0.15-0.29,0.19-0.45c0.03-0.16,0.05-0.32,0.05-0.48v-2.12
			h0.47V39.81z"/>
		<path class="st0" d="M82.9,37.78c0-0.3-0.01-0.6-0.03-0.9h0.46v0.68h0.02c0.04-0.09,0.1-0.18,0.16-0.27
			c0.06-0.09,0.14-0.17,0.23-0.25c0.1-0.08,0.21-0.14,0.35-0.19c0.14-0.04,0.31-0.07,0.5-0.07c0.47,0,0.81,0.15,1.01,0.42
			c0.2,0.27,0.29,0.62,0.29,1.05v2.45h-0.47v-2.33c0-0.37-0.07-0.66-0.2-0.87c-0.15-0.21-0.38-0.31-0.71-0.31
			c-0.42,0.01-0.72,0.16-0.89,0.45c-0.09,0.14-0.15,0.28-0.19,0.44c-0.04,0.17-0.06,0.33-0.06,0.5v2.12H82.9V37.78z"/>
		<path class="st0" d="M90.96,40.4c0.23,0,0.44-0.06,0.6-0.19c0.16-0.11,0.24-0.28,0.25-0.5c0-0.23-0.1-0.4-0.28-0.53
			c-0.18-0.12-0.39-0.24-0.64-0.34c-0.11-0.05-0.23-0.11-0.33-0.17s-0.21-0.13-0.3-0.2c-0.08-0.08-0.15-0.17-0.21-0.28
			c-0.06-0.1-0.08-0.22-0.08-0.35c0-0.38,0.14-0.65,0.39-0.81c0.25-0.15,0.53-0.23,0.86-0.23c0.11,0,0.25,0.01,0.43,0.03
			c0.18,0.03,0.35,0.08,0.52,0.14l-0.04,0.41c-0.27-0.12-0.56-0.18-0.85-0.18c-0.25,0-0.44,0.04-0.59,0.14
			c-0.08,0.04-0.13,0.11-0.17,0.19c-0.05,0.08-0.07,0.19-0.07,0.31c0,0.08,0.03,0.16,0.08,0.23c0.06,0.06,0.13,0.12,0.22,0.18
			c0.09,0.05,0.19,0.1,0.31,0.16c0.12,0.05,0.23,0.1,0.34,0.17c0.25,0.1,0.47,0.25,0.65,0.42c0.18,0.18,0.28,0.42,0.29,0.73
			c0,0.2-0.04,0.37-0.12,0.5c-0.09,0.14-0.19,0.25-0.32,0.34c-0.28,0.17-0.58,0.25-0.89,0.25c-0.37,0-0.73-0.06-1.07-0.18l0.04-0.47
			C90.25,40.31,90.59,40.39,90.96,40.4z"/>
		<path class="st0" d="M95.09,40.71h-0.56l-1.3-3.83h0.52l1.06,3.31h0.01l1.11-3.31h0.5L95.09,40.71z"/>
		<path class="st0" d="M98.15,35.86h-0.47v-0.63h0.47V35.86z M97.68,36.88h0.47v3.83h-0.47V36.88z"/>
		<path class="st0" d="M99.57,40.31l2.3-3.02h-2.21v-0.41h2.76v0.41l-2.3,3.02h2.3v0.41h-2.85V40.31z"/>
		<path class="st0" d="M103.84,37.74c0-0.35-0.01-0.64-0.03-0.86h0.47v0.74h0.01c0.09-0.23,0.22-0.42,0.38-0.58
			c0.16-0.16,0.36-0.24,0.6-0.25c0.12,0,0.23,0.02,0.33,0.04v0.5c-0.1-0.03-0.22-0.05-0.35-0.05c-0.19,0.01-0.34,0.05-0.46,0.14
			c-0.12,0.09-0.22,0.21-0.29,0.37c-0.07,0.15-0.12,0.31-0.15,0.49c-0.04,0.19-0.05,0.37-0.05,0.54v1.89h-0.47V37.74z"/>
		<path class="st0" d="M109.13,40.1h-0.02c-0.11,0.23-0.28,0.4-0.5,0.52s-0.46,0.18-0.71,0.19c-0.27,0-0.48-0.05-0.65-0.13
			c-0.17-0.08-0.3-0.17-0.39-0.29c-0.16-0.25-0.24-0.47-0.23-0.67c0-0.32,0.08-0.57,0.23-0.76c0.15-0.19,0.34-0.32,0.58-0.4
			c0.24-0.08,0.49-0.14,0.77-0.17c0.27-0.02,0.53-0.02,0.78-0.02h0.09v-0.2c0.01-0.66-0.28-0.98-0.87-0.98
			c-0.4,0-0.77,0.1-1.13,0.31v-0.46c0.35-0.17,0.73-0.25,1.13-0.26c0.91-0.01,1.35,0.47,1.34,1.43v1.69
			c-0.01,0.29,0.01,0.56,0.04,0.8h-0.47V40.1z M109.08,38.78h-0.14c-0.21,0-0.41,0-0.62,0.01c-0.22,0.02-0.41,0.06-0.59,0.13
			c-0.18,0.06-0.31,0.15-0.42,0.28c-0.12,0.12-0.17,0.29-0.17,0.5c0,0.25,0.08,0.42,0.24,0.52c0.15,0.11,0.33,0.17,0.56,0.17
			c0.27,0,0.49-0.06,0.65-0.17c0.15-0.1,0.27-0.23,0.34-0.38c0.07-0.15,0.12-0.31,0.13-0.46c0.01-0.16,0.02-0.28,0.02-0.38V38.78z"
			/>
	</g>
	<g>
		<path d="M24.45,4.19c0,0-3.97-1.74-10.61-1.74h0c-6.64,0-10.61,1.74-10.61,1.74s-0.36,7.7,1.15,12.05c2.66,7.65,9.46,9.8,9.46,9.8
			h0h0c0,0,6.8-2.15,9.46-9.8C24.8,11.89,24.45,4.19,24.45,4.19z"/>
	</g>
	<polygon class="st1" points="20.88,10.83 20.88,15.07 15.94,15.07 15.94,20.02 11.7,20.02 11.7,15.07 6.75,15.07 6.75,10.83 
		11.7,10.83 11.7,5.88 15.94,5.88 15.94,10.83 	"/>
</g>
</svg>
